<svg width="24" height="22" viewBox="0 0 24 22" fill="none" xmlns="http://www.w3.org/2000/svg">
<path fill-rule="evenodd" clip-rule="evenodd" d="M23.2207 11.233C23.2207 5.28459 18.0714 0.461426 11.7207 0.461426C5.37003 0.461426 0.220703 5.28459 0.220703 11.233C0.220703 16.6092 4.42539 21.0654 9.92383 21.8743L9.92383 14.3476L7.00313 14.3476L7.00313 11.233L9.92383 11.233L9.92383 8.85988C9.92383 6.16074 11.6411 4.66859 14.2676 4.66859C15.526 4.66859 16.8423 4.87921 16.8423 4.87921L16.8423 7.53027L15.3915 7.53027C13.9637 7.53027 13.5171 8.36026 13.5171 9.21333L13.5171 11.233L16.7063 11.233L16.197 14.3476L13.5176 14.3476L13.5176 21.8752C19.016 21.0669 23.2207 16.6106 23.2207 11.233Z" fill="white"/>
</svg>
